<mxfile host="app.diagrams.net" modified="2023-11-21T10:13:20.200Z" agent="Mozilla/5.0 (Windows NT 10.0; Win64; x64) AppleWebKit/537.36 (KHTML, like Gecko) Chrome/119.0.0.0 Safari/537.36" etag="sapRdJ87LY870KsZyFuh" version="22.1.3" type="device" pages="2">
  <diagram name="Strona-1" id="noMu8fYOdLtHi20o2T_a">
    <mxGraphModel dx="1434" dy="790" grid="1" gridSize="10" guides="1" tooltips="1" connect="1" arrows="1" fold="1" page="1" pageScale="1" pageWidth="827" pageHeight="1169" math="0" shadow="0">
      <root>
        <mxCell id="0" />
        <mxCell id="1" parent="0" />
        <mxCell id="LAvDrcUuLBtv2jJmqWlH-1" value="" style="curved=1;endArrow=classic;html=1;rounded=0;" edge="1" parent="1" target="LAvDrcUuLBtv2jJmqWlH-2">
          <mxGeometry width="50" height="50" relative="1" as="geometry">
            <mxPoint x="530" y="700" as="sourcePoint" />
            <mxPoint x="370" y="400" as="targetPoint" />
            <Array as="points">
              <mxPoint x="540" y="530" />
              <mxPoint x="250" y="670" />
            </Array>
          </mxGeometry>
        </mxCell>
        <mxCell id="LAvDrcUuLBtv2jJmqWlH-2" value="" style="rhombus;whiteSpace=wrap;html=1;strokeWidth=2;fillWeight=-1;hachureGap=8;fillStyle=cross-hatch;fillColor=#006600;sketch=1;" vertex="1" parent="1">
          <mxGeometry x="200" y="200" width="410" height="230" as="geometry" />
        </mxCell>
        <mxCell id="LAvDrcUuLBtv2jJmqWlH-4" value="" style="shape=image;html=1;verticalLabelPosition=bottom;verticalAlign=top;imageAspect=0;image=img/clipart/Gear_128x128.png" vertex="1" parent="1">
          <mxGeometry x="500" y="680" width="50" height="70" as="geometry" />
        </mxCell>
        <mxCell id="LAvDrcUuLBtv2jJmqWlH-5" value="" style="verticalLabelPosition=bottom;verticalAlign=top;html=1;shape=mxgraph.basic.smiley" vertex="1" parent="1">
          <mxGeometry x="355" y="265" width="100" height="100" as="geometry" />
        </mxCell>
        <mxCell id="LAvDrcUuLBtv2jJmqWlH-6" value="" style="shape=mxgraph.arrows2.wedgeArrow;html=1;bendable=0;startWidth=50;fillColor=strokeColor;defaultFillColor=invert;defaultGradientColor=invert;rounded=0;" edge="1" parent="1">
          <mxGeometry width="100" height="100" relative="1" as="geometry">
            <mxPoint x="408" y="290" as="sourcePoint" />
            <mxPoint x="414" y="10" as="targetPoint" />
          </mxGeometry>
        </mxCell>
        <mxCell id="LAvDrcUuLBtv2jJmqWlH-7" value="" style="verticalLabelPosition=bottom;verticalAlign=top;html=1;shape=mxgraph.flowchart.or;" vertex="1" parent="1">
          <mxGeometry x="390" y="190" width="30" height="30" as="geometry" />
        </mxCell>
      </root>
    </mxGraphModel>
  </diagram>
  <diagram id="HHFbJhrUCXW9hBf6XLsC" name="Strona-2">
    <mxGraphModel dx="232" dy="306" grid="1" gridSize="10" guides="1" tooltips="1" connect="1" arrows="1" fold="1" page="1" pageScale="1" pageWidth="827" pageHeight="1169" math="0" shadow="0">
      <root>
        <mxCell id="0" />
        <mxCell id="1" parent="0" />
        <mxCell id="w7ytSuRwYGBmDg8dadY2-1" value="File" style="swimlane;fontStyle=1;align=center;verticalAlign=top;childLayout=stackLayout;horizontal=1;startSize=26;horizontalStack=0;resizeParent=1;resizeParentMax=0;resizeLast=0;collapsible=1;marginBottom=0;whiteSpace=wrap;html=1;" vertex="1" parent="1">
          <mxGeometry x="120" y="360" width="160" height="240" as="geometry" />
        </mxCell>
        <mxCell id="w7ytSuRwYGBmDg8dadY2-2" value="- name: String&lt;br&gt;- location: String&lt;br&gt;- size:double&lt;br&gt;- createDate: String&lt;br&gt;- type: String&lt;br&gt;- modifyDate: String" style="text;strokeColor=none;fillColor=none;align=left;verticalAlign=top;spacingLeft=4;spacingRight=4;overflow=hidden;rotatable=0;points=[[0,0.5],[1,0.5]];portConstraint=eastwest;whiteSpace=wrap;html=1;" vertex="1" parent="w7ytSuRwYGBmDg8dadY2-1">
          <mxGeometry y="26" width="160" height="104" as="geometry" />
        </mxCell>
        <mxCell id="w7ytSuRwYGBmDg8dadY2-3" value="" style="line;strokeWidth=1;fillColor=none;align=left;verticalAlign=middle;spacingTop=-1;spacingLeft=3;spacingRight=3;rotatable=0;labelPosition=right;points=[];portConstraint=eastwest;strokeColor=inherit;" vertex="1" parent="w7ytSuRwYGBmDg8dadY2-1">
          <mxGeometry y="130" width="160" height="8" as="geometry" />
        </mxCell>
        <mxCell id="w7ytSuRwYGBmDg8dadY2-4" value="+ open(): void&lt;br&gt;+ rename(String): void&lt;br&gt;+ edit(): void&lt;br&gt;+ changeLocation(): void&lt;br&gt;+ delete(): void&lt;br&gt;+ copy(): void" style="text;strokeColor=none;fillColor=none;align=left;verticalAlign=top;spacingLeft=4;spacingRight=4;overflow=hidden;rotatable=0;points=[[0,0.5],[1,0.5]];portConstraint=eastwest;whiteSpace=wrap;html=1;" vertex="1" parent="w7ytSuRwYGBmDg8dadY2-1">
          <mxGeometry y="138" width="160" height="102" as="geometry" />
        </mxCell>
        <mxCell id="w7ytSuRwYGBmDg8dadY2-5" value="BankAccount" style="swimlane;fontStyle=1;align=center;verticalAlign=top;childLayout=stackLayout;horizontal=1;startSize=26;horizontalStack=0;resizeParent=1;resizeParentMax=0;resizeLast=0;collapsible=1;marginBottom=0;whiteSpace=wrap;html=1;" vertex="1" parent="1">
          <mxGeometry x="310" y="360" width="170" height="210" as="geometry" />
        </mxCell>
        <mxCell id="w7ytSuRwYGBmDg8dadY2-6" value="- accountNumber: String&lt;br&gt;- balance: double&lt;br&gt;- accountName: String&lt;br&gt;- accountOwner: String&lt;br&gt;- isActive: bool" style="text;strokeColor=none;fillColor=none;align=left;verticalAlign=top;spacingLeft=4;spacingRight=4;overflow=hidden;rotatable=0;points=[[0,0.5],[1,0.5]];portConstraint=eastwest;whiteSpace=wrap;html=1;" vertex="1" parent="w7ytSuRwYGBmDg8dadY2-5">
          <mxGeometry y="26" width="170" height="84" as="geometry" />
        </mxCell>
        <mxCell id="w7ytSuRwYGBmDg8dadY2-7" value="" style="line;strokeWidth=1;fillColor=none;align=left;verticalAlign=middle;spacingTop=-1;spacingLeft=3;spacingRight=3;rotatable=0;labelPosition=right;points=[];portConstraint=eastwest;strokeColor=inherit;" vertex="1" parent="w7ytSuRwYGBmDg8dadY2-5">
          <mxGeometry y="110" width="170" height="8" as="geometry" />
        </mxCell>
        <mxCell id="w7ytSuRwYGBmDg8dadY2-8" value="+ withdraw(double): void&lt;br&gt;+ deposit(double): void&lt;br&gt;+ getBalance(): double&lt;br&gt;+ transfer(String,double): void&lt;br&gt;+ deactivate(): void" style="text;strokeColor=none;fillColor=none;align=left;verticalAlign=top;spacingLeft=4;spacingRight=4;overflow=hidden;rotatable=0;points=[[0,0.5],[1,0.5]];portConstraint=eastwest;whiteSpace=wrap;html=1;" vertex="1" parent="w7ytSuRwYGBmDg8dadY2-5">
          <mxGeometry y="118" width="170" height="92" as="geometry" />
        </mxCell>
        <mxCell id="w7ytSuRwYGBmDg8dadY2-9" value="Cat" style="swimlane;fontStyle=1;align=center;verticalAlign=top;childLayout=stackLayout;horizontal=1;startSize=26;horizontalStack=0;resizeParent=1;resizeParentMax=0;resizeLast=0;collapsible=1;marginBottom=0;whiteSpace=wrap;html=1;" vertex="1" parent="1">
          <mxGeometry x="510" y="360" width="160" height="230" as="geometry" />
        </mxCell>
        <mxCell id="w7ytSuRwYGBmDg8dadY2-10" value="- name: String&lt;br&gt;- age: int&lt;br&gt;- breed: String&lt;br&gt;- sex: String&lt;br&gt;- colour: String" style="text;strokeColor=none;fillColor=none;align=left;verticalAlign=top;spacingLeft=4;spacingRight=4;overflow=hidden;rotatable=0;points=[[0,0.5],[1,0.5]];portConstraint=eastwest;whiteSpace=wrap;html=1;" vertex="1" parent="w7ytSuRwYGBmDg8dadY2-9">
          <mxGeometry y="26" width="160" height="84" as="geometry" />
        </mxCell>
        <mxCell id="w7ytSuRwYGBmDg8dadY2-11" value="" style="line;strokeWidth=1;fillColor=none;align=left;verticalAlign=middle;spacingTop=-1;spacingLeft=3;spacingRight=3;rotatable=0;labelPosition=right;points=[];portConstraint=eastwest;strokeColor=inherit;" vertex="1" parent="w7ytSuRwYGBmDg8dadY2-9">
          <mxGeometry y="110" width="160" height="8" as="geometry" />
        </mxCell>
        <mxCell id="w7ytSuRwYGBmDg8dadY2-12" value="+ eat(): void&lt;br&gt;+ sleep(): void&lt;br&gt;+ play(): void&lt;br&gt;+ meow(): void&lt;br&gt;+ purr(): void&lt;br&gt;+ knockObject(): void&lt;br&gt;+ scratch(): void&lt;br&gt;" style="text;strokeColor=none;fillColor=none;align=left;verticalAlign=top;spacingLeft=4;spacingRight=4;overflow=hidden;rotatable=0;points=[[0,0.5],[1,0.5]];portConstraint=eastwest;whiteSpace=wrap;html=1;" vertex="1" parent="w7ytSuRwYGBmDg8dadY2-9">
          <mxGeometry y="118" width="160" height="112" as="geometry" />
        </mxCell>
        <mxCell id="w7ytSuRwYGBmDg8dadY2-13" value="GamoÅ„" style="shape=umlActor;verticalLabelPosition=bottom;verticalAlign=top;html=1;" vertex="1" parent="1">
          <mxGeometry x="280" y="330" width="30" height="60" as="geometry" />
        </mxCell>
      </root>
    </mxGraphModel>
  </diagram>
</mxfile>
